<?xml version="1.0" encoding="utf-8"?>
<!-- Generator: Adobe Illustrator 27.3.1, SVG Export Plug-In . SVG Version: 6.00 Build 0)  -->
<svg version="1.1" xmlns="http://www.w3.org/2000/svg" xmlns:xlink="http://www.w3.org/1999/xlink" x="0px" y="0px"
	 viewBox="0 0 1366 488" style="enable-background:new 0 0 1366 488;" xml:space="preserve">
<style type="text/css">
	.st0{display:none;}
</style>
<g id="Layer_1" class="st0">
	
		<image style="display:inline;overflow:visible;" width="237" height="115" xlink:href="8FC76C3B.jpg"  transform="matrix(4.5992 0 0 4.5992 138 -19.9515)">
	</image>
</g>
<g id="Layer_2">
	<circle cx="351.8" cy="298.5" r="174.5"/>
	<circle cx="1067.4" cy="298.5" r="174.5"/>
	<path d="M152.3,298.5c0-30.8,7-60,19.5-86.1C94.4,225.3,20.6,244,20.6,267.7c0,42.5-0.3,90.9,24.7,90.9c4.2,0,48.3,0,116.3,0
		C155.6,339.6,152.3,319.4,152.3,298.5z"/>
	<path d="M875.3,358.6c-6.7-19.8-10.3-41-10.3-63.1c0-69.3,35.6-130.3,89.5-165.6L773.6,46.3h-74.3c0,0-30.8,0-30.8,32.3
		s11.7,61.6,11.7,61.6s-90.9,39.6-124.6,39.6c-8.9,0-24,0.5-42.6,1.4c24,32.9,38.2,73.5,38.2,117.4c0,21-3.2,41.2-9.2,60.1
		C662.2,358.6,778.1,358.6,875.3,358.6z"/>
	<path d="M1244.8,206.1c-11.7-33.7-42.5-73.3-73.3-79.2c0-20.5,0-112.9,0-112.9h173v192.3C1344.6,206.3,1296.2,206.1,1244.8,206.1z"
		/>
</g>
</svg>
