<?xml version="1.0" encoding="utf-8"?>
<!-- Generator: Adobe Illustrator 27.3.1, SVG Export Plug-In . SVG Version: 6.00 Build 0)  -->
<svg version="1.1" id="Layer_1" xmlns="http://www.w3.org/2000/svg" xmlns:xlink="http://www.w3.org/1999/xlink" x="0px" y="0px"
	 viewBox="0 0 317.5 317.6" style="enable-background:new 0 0 317.5 317.6;" xml:space="preserve">
<g id="GeneRally-2">
	<circle cx="148.8" cy="41.3" r="34.6"/>
	<circle cx="274.4" cy="116.1" r="34.6"/>
	<circle cx="50.5" cy="180.4" r="42"/>
	<circle cx="196.3" cy="268.9" r="42"/>
	<g id="Layer_3-2">
		<path d="M232.4,44.1c-11.9-6.4-35.5,27.3-61,41c-32.8,17.2-47.5,15.6-62.8,31.9c-15.3,17.2-8.3,35.5-6.4,59.1
			c1.8,23.6,3.7,49,17.2,56.4c17.2,8.3,42.9-5.5,57.3-11.9c15.3-6.4,39.2-10.1,47.5-30.9c8.3-19.9-1.8-30.9-1.8-62.8
			C222.6,96.8,244.4,51.4,232.4,44.1L232.4,44.1z M165.3,182.2c-15.3,0-28.2-12.9-28.2-28.2s12.9-28.2,28.2-28.2
			s28.2,12.9,28.2,28.2S180.7,182.2,165.3,182.2z"/>
	</g>
</g>
</svg>
