<?xml version="1.0" encoding="utf-8"?>
<!-- Generator: Adobe Illustrator 27.3.1, SVG Export Plug-In . SVG Version: 6.00 Build 0)  -->
<svg version="1.1" id="Layer_1" xmlns="http://www.w3.org/2000/svg" xmlns:xlink="http://www.w3.org/1999/xlink" x="0px" y="0px"
	 viewBox="0 0 48 48" style="enable-background:new 0 0 48 48;" xml:space="preserve">
<path d="M13.7,43c-1.7-4.1-2.1-8.3-1.3-12.6s2.8-8,6-11.2c2.3-2.3,5-4,8.1-5.1s6.3-1.5,9.5-1.1l-5.9-5.9L32.3,5l9.8,9.8l-9.8,9.8
	l-2.1-2.1l6.3-6.3c-2.9-0.4-5.8-0.1-8.6,0.8c-2.8,0.9-5.2,2.4-7.3,4.5c-2.5,2.5-4.2,5.6-5,9s-0.6,6.9,0.5,10.3L13.7,43z"/>
</svg>
