<?xml version="1.0" encoding="utf-8"?>
<!-- Generator: Adobe Illustrator 27.3.1, SVG Export Plug-In . SVG Version: 6.00 Build 0)  -->
<svg version="1.1" id="Layer_1" xmlns="http://www.w3.org/2000/svg" xmlns:xlink="http://www.w3.org/1999/xlink" x="0px" y="0px"
	 viewBox="0 0 54.9 54.9" style="enable-background:new 0 0 54.9 54.9;" xml:space="preserve">
<style type="text/css">
	.st0{fill:#FFFFFF;}
</style>
<g id="Layer_1_00000053516178322851216090000014428080716362945947_">
	<g>
		<path class="st0" d="M26.8,52.4c-4.7,0-9-1.1-12.9-3.3S7,43.8,4.7,39.9C2.5,36,1.4,31.7,1.4,27c0-4.8,1.1-9.1,3.3-13
			c2.2-3.8,5.3-6.8,9.2-9.1c3.9-2.2,8.2-3.3,12.9-3.3c4.8,0,9.1,1.1,13,3.3c3.8,2.2,6.8,5.2,9.1,9.1c2.2,3.8,3.3,8.1,3.3,13
			c0,4.7-1.1,9-3.3,12.9c-2.2,3.9-5.2,6.9-9.1,9.2C35.9,51.2,31.6,52.4,26.8,52.4z"/>
	</g>
</g>
<g id="Layer_2_00000177466679430434490550000001050643270137661339_">
	<circle cx="25" cy="14.4" r="3.8"/>
	<circle cx="38.8" cy="22.6" r="3.8"/>
	<circle cx="14.2" cy="29.7" r="4.6"/>
	<circle cx="30.2" cy="39.4" r="4.6"/>
	<g id="Layer_3">
		<path d="M34.2,14.7c-1.3-0.7-3.9,3-6.7,4.5c-3.6,1.9-5.2,1.7-6.9,3.5c-1.7,1.9-0.9,3.9-0.7,6.5s0.4,5.4,1.9,6.2
			c1.9,0.9,4.7-0.6,6.3-1.3c1.7-0.7,4.3-1.1,5.2-3.4c0.9-2.2-0.2-3.4-0.2-6.9C33.1,20.5,35.5,15.5,34.2,14.7z M26.8,29.9
			c-1.7,0-3.1-1.4-3.1-3.1s1.4-3.1,3.1-3.1s3.1,1.4,3.1,3.1S28.5,29.9,26.8,29.9z"/>
	</g>
</g>
</svg>
