<?xml version="1.0" encoding="utf-8"?>
<!-- Generator: Adobe Illustrator 27.3.1, SVG Export Plug-In . SVG Version: 6.00 Build 0)  -->
<svg version="1.1" id="Layer_1" xmlns="http://www.w3.org/2000/svg" xmlns:xlink="http://www.w3.org/1999/xlink" x="0px" y="0px"
	 viewBox="0 0 317.5 317.6" style="enable-background:new 0 0 317.5 317.6;" xml:space="preserve">
<style type="text/css">
	.st0{opacity:5.000000e-02;}
	.st1{fill:#FFFFFF;}
</style>
<g id="GeneRally" class="st0">
	<circle class="st1" cx="234.5" cy="47.5" r="11.3"/>
	<circle class="st1" cx="275.5" cy="71.9" r="11.3"/>
	<circle class="st1" cx="202.4" cy="93" r="13.7"/>
	<circle class="st1" cx="249.9" cy="121.8" r="13.7"/>
	<g id="Layer_3">
		<path class="st1" d="M261.8,48.4c-3.9-2.1-11.6,8.9-19.9,13.4c-10.7,5.6-15.5,5-20.5,10.4c-5,5.6-2.7,11.6-2.1,19.3
			c0.6,7.7,1.2,16,5.6,18.4c5.6,2.7,14-1.8,18.7-3.9c5-2.1,12.8-3.3,15.5-10.1c2.7-6.5-0.6-10.1-0.6-20.5
			C258.5,65.7,265.7,50.8,261.8,48.4L261.8,48.4z M239.8,93.6c-5,0-9.2-4.2-9.2-9.2s4.2-9.2,9.2-9.2s9.2,4.2,9.2,9.2
			S244.9,93.6,239.8,93.6z"/>
	</g>
</g>
<g id="GeneRally-2" class="st0">
	<circle class="st1" cx="76.8" cy="202.4" r="11.3"/>
	<circle class="st1" cx="117.8" cy="226.8" r="11.3"/>
	<circle class="st1" cx="44.7" cy="247.8" r="13.7"/>
	<circle class="st1" cx="92.3" cy="276.7" r="13.7"/>
	<g id="Layer_3-2">
		<path class="st1" d="M104.1,203.3c-3.9-2.1-11.6,8.9-19.9,13.4c-10.7,5.6-15.5,5.1-20.5,10.4c-5,5.6-2.7,11.6-2.1,19.3
			c0.6,7.7,1.2,16,5.6,18.4c5.6,2.7,14-1.8,18.7-3.9c5-2.1,12.8-3.3,15.5-10.1c2.7-6.5-0.6-10.1-0.6-20.5
			C100.9,220.5,108,205.7,104.1,203.3L104.1,203.3z M82.2,248.4c-5,0-9.2-4.2-9.2-9.2s4.2-9.2,9.2-9.2s9.2,4.2,9.2,9.2
			S87.2,248.4,82.2,248.4z"/>
	</g>
</g>
</svg>
