<?xml version="1.0" encoding="utf-8"?>
<!-- Generator: Adobe Illustrator 27.3.1, SVG Export Plug-In . SVG Version: 6.00 Build 0)  -->
<svg version="1.1" xmlns="http://www.w3.org/2000/svg" xmlns:xlink="http://www.w3.org/1999/xlink" x="0px" y="0px"
	 viewBox="0 0 1366 158" style="enable-background:new 0 0 1366 158;" xml:space="preserve">
<style type="text/css">
	.st0{fill:#FFFFFF;}
</style>
<g id="Layer_1">
	<g>
		<path d="M155.5,88.4c-0.5,8.1-2.2,16-5.1,23.6c-2.9,7.6-7.2,14.4-12.8,20.4c-5.6,6-12.7,10.7-21.4,14.2
			c-8.6,3.5-18.9,5.2-30.7,5.2c-10.7,0-20.9-1.5-30.4-4.6c-9.6-3.1-18-7.7-25.4-13.8c-7.3-6.1-13.1-13.7-17.3-22.8
			c-4.2-9.1-6.3-19.6-6.3-31.6c0-12,2.1-22.5,6.3-31.6c4.2-9.1,10.1-16.7,17.6-22.8c7.5-6.1,16.2-10.7,26.1-13.8
			c9.9-3.1,20.5-4.6,32-4.6c16,0,29.8,2.4,41.2,7.1c11.4,4.8,20.6,11.3,27.6,19.5c7,8.3,11.6,17.8,13.8,28.7h-47.9
			c-1.1-3.5-3.3-6.4-6.6-8.8c-3.3-2.4-7.3-4.3-11.9-5.6c-4.7-1.3-9.9-1.9-15.7-1.9c-7.2,0-13.3,1.2-18.5,3.6s-9.2,6.1-11.9,11
			c-2.8,4.9-4.2,11.3-4.2,19.1c0,7.9,1.6,14.4,4.7,19.6s7.6,9,13.5,11.5c5.9,2.5,12.8,3.7,20.8,3.7c7.8,0,14.7-0.9,20.7-2.7
			c6-1.8,10.9-4.6,14.7-8.3c3.8-3.8,6.1-8.5,6.9-14.3H155.5z M95.9,106.9V74.1h75.9v74.2h-33.1l-7-53.1l8.3,11.7H95.9z"/>
		<path d="M224.7,68.9h46.6c4.7,0,8.3-1.1,10.9-3.3c2.6-2.2,3.9-5.4,3.9-9.6c0-4.2-1.3-7.4-3.9-9.6c-2.6-2.2-6.2-3.3-10.9-3.3H218
			l21.5-21.5v126.8h-47.8V9.5h87c11.1,0,20.8,1.9,29.2,5.8c8.3,3.9,14.8,9.3,19.4,16.2c4.6,6.9,6.9,15.1,6.9,24.4
			c0,9.1-2.3,17.2-6.9,24.2c-4.6,7-11.1,12.4-19.4,16.2c-8.3,3.8-18,5.7-29.2,5.7h-54V68.9z M241,83.4h52.8l46.1,65h-54.6L241,83.4z
			"/>
		<path d="M373.2,150.6c-4.7,0-9-1.1-12.9-3.3c-3.9-2.2-6.9-5.3-9.2-9.2c-2.2-3.9-3.3-8.2-3.3-12.9c0-4.8,1.1-9.1,3.3-13
			c2.2-3.8,5.3-6.8,9.2-9.1c3.9-2.2,8.2-3.3,12.9-3.3c4.8,0,9.1,1.1,13,3.3c3.8,2.2,6.8,5.2,9.1,9.1c2.2,3.8,3.3,8.1,3.3,13
			c0,4.7-1.1,9-3.3,12.9c-2.2,3.9-5.2,6.9-9.1,9.2C382.3,149.4,378,150.6,373.2,150.6z"/>
		<path d="M383.9,9.5h147.7v42.6H383.9V9.5z M433.9,30.1h47.8v118.3h-47.8V30.1z"/>
		<path d="M579.9,68.8h46.5c4.7,0,8.3-1.1,10.9-3.3c2.6-2.2,3.9-5.4,3.9-9.6c0-4.2-1.3-7.4-3.9-9.6c-2.6-2.2-6.2-3.3-10.9-3.3h-53.2
			l21.4-21.4v126.4H547V9.5h86.8c11.1,0,20.8,1.9,29.1,5.8c8.3,3.9,14.8,9.3,19.4,16.2c4.6,6.9,6.9,15,6.9,24.4
			c0,9.1-2.3,17.1-6.9,24.1c-4.6,7-11.1,12.3-19.4,16.2c-8.3,3.8-18,5.7-29.1,5.7h-53.9V68.8z M596.1,83.2h52.6l46,64.8h-54.5
			L596.1,83.2z"/>
		<path d="M819.4,9.5l60.9,138.8h-50.9L781.5,30.6h12.2l-47.9,117.7h-50.9L755.7,9.5H819.4z M739.5,125V87.1H834V125H739.5z"/>
		<path d="M1041.7,88.2c-1.5,12.7-5.8,23.8-13,33.3c-7.2,9.5-16.8,16.9-28.6,22.2c-11.8,5.3-25.4,8-40.7,8c-16.5,0-31-3-43.3-9.1
			c-12.3-6-21.9-14.5-28.8-25.5S877,93.5,877,78.9c0-14.6,3.4-27.3,10.3-38.2c6.8-10.9,16.4-19.4,28.8-25.5
			c12.3-6,26.8-9.1,43.3-9.1c15.3,0,28.9,2.7,40.7,8c11.8,5.3,21.4,12.7,28.6,22.2c7.2,9.5,11.6,20.6,13,33.3h-47.9
			c-1.1-4.8-3.1-8.9-6.1-12.3c-3-3.4-6.8-6-11.6-7.8c-4.8-1.8-10.3-2.7-16.8-2.7c-7.2,0-13.3,1.3-18.4,3.8c-5.1,2.5-9,6.2-11.8,11
			c-2.7,4.8-4.1,10.6-4.1,17.2s1.4,12.4,4.1,17.1c2.7,4.8,6.6,8.4,11.8,11c5.1,2.6,11.3,3.9,18.4,3.9c6.4,0,12-0.8,16.8-2.5
			c4.7-1.7,8.6-4.2,11.6-7.6c3-3.4,5-7.6,6.1-12.7H1041.7z"/>
		<path d="M1057.8,148.3V9.5h47.4v101.6l-12-10.2l69-91.4h50l-111.1,138.8H1057.8z M1124.5,84.5l35.2-27.6l54.4,91.4h-54
			L1124.5,84.5z"/>
		<path d="M1211.4,102.6h48.5c0.5,2.7,1.9,5,4.3,6.9c2.3,1.9,5.6,3.4,9.6,4.4c4.1,1,8.9,1.6,14.6,1.6c7.4,0,13.2-0.7,17.3-2.2
			c4.1-1.5,6.2-3.9,6.2-7.2c0-2.2-1.2-4.1-3.5-5.6c-2.3-1.5-7.2-2.6-14.4-3.1l-23-1.5c-20.9-1.4-35.9-5.8-45.2-13.3
			c-9.3-7.5-13.9-17.5-13.9-29.8c0-10.4,3-19,8.9-25.9c5.9-6.9,14.2-12.1,24.9-15.5c10.7-3.5,23.2-5.2,37.5-5.2
			c13.9,0,26.3,1.9,37.1,5.8c10.8,3.9,19.4,9.3,25.7,16.4c6.4,7,9.8,15.2,10.5,24.6h-48.5c-0.4-2.2-1.6-4.1-3.6-5.7
			c-2-1.6-4.9-2.8-8.6-3.7c-3.7-0.9-8.2-1.3-13.5-1.3c-6.8,0-12.1,0.7-16,2c-3.9,1.4-5.8,3.6-5.8,6.7c0,2.1,1.1,3.9,3.4,5.4
			c2.3,1.5,6.7,2.5,13.2,3l25.9,1.7c13.6,0.9,24.6,2.9,32.9,6c8.4,3.1,14.5,7.5,18.4,13c3.9,5.6,5.8,12.4,5.8,20.5
			c0,10.2-3,19.2-9.1,26.8c-6,7.7-14.5,13.6-25.5,17.9c-10.9,4.3-23.7,6.4-38.2,6.4c-15.1,0-28.3-2-39.6-6.1
			c-11.4-4.1-20.2-9.8-26.6-17.2C1215,120.9,1211.7,112.4,1211.4,102.6z"/>
	</g>
</g>
<g id="Layer_2">
	<circle class="st0" cx="371.4" cy="112.6" r="3.8"/>
	<circle class="st0" cx="385.2" cy="120.8" r="3.8"/>
	<circle class="st0" cx="360.6" cy="127.9" r="4.6"/>
	<circle class="st0" cx="376.6" cy="137.6" r="4.6"/>
	<g id="Layer_3">
		<path class="st0" d="M380.6,112.9c-1.3-0.7-3.9,3-6.7,4.5c-3.6,1.9-5.2,1.7-6.9,3.5c-1.7,1.9-0.9,3.9-0.7,6.5s0.4,5.4,1.9,6.2
			c1.9,0.9,4.7-0.6,6.3-1.3c1.7-0.7,4.3-1.1,5.2-3.4c0.9-2.2-0.2-3.4-0.2-6.9C379.5,118.7,381.9,113.7,380.6,112.9z M373.2,128.1
			c-1.7,0-3.1-1.4-3.1-3.1s1.4-3.1,3.1-3.1s3.1,1.4,3.1,3.1S374.9,128.1,373.2,128.1z"/>
	</g>
</g>
</svg>
